<svg width="10" height="10" viewBox="0 0 10 10" fill="none" xmlns="http://www.w3.org/2000/svg">
<path d="M6.06071 4.99984L9.02946 2.03109C9.17035 1.89044 9.24961 1.69958 9.24978 1.5005C9.24996 1.30142 9.17104 1.11042 9.03039 0.969524C8.88974 0.828627 8.69889 0.749374 8.49981 0.749198C8.30072 0.749022 8.10973 0.827939 7.96883 0.968586L5.00008 3.93734L2.03133 0.968586C1.89043 0.82769 1.69934 0.748535 1.50008 0.748535C1.30082 0.748535 1.10973 0.82769 0.96883 0.968586C0.827934 1.10948 0.748779 1.30058 0.748779 1.49984C0.748779 1.69909 0.827934 1.89019 0.96883 2.03109L3.93758 4.99984L0.96883 7.96859C0.827934 8.10948 0.748779 8.30058 0.748779 8.49984C0.748779 8.69909 0.827934 8.89019 0.96883 9.03109C1.10973 9.17198 1.30082 9.25114 1.50008 9.25114C1.69934 9.25114 1.89043 9.17198 2.03133 9.03109L5.00008 6.06234L7.96883 9.03109C8.10973 9.17198 8.30082 9.25114 8.50008 9.25114C8.69934 9.25114 8.89043 9.17198 9.03133 9.03109C9.17223 8.89019 9.25138 8.69909 9.25138 8.49984C9.25138 8.30058 9.17223 8.10948 9.03133 7.96859L6.06071 4.99984Z" fill="#111215"/>
</svg>
