<svg width="24" height="24" viewBox="0 0 24 24" fill="none" xmlns="http://www.w3.org/2000/svg">
<path d="M7.5 7.5L8.125 17.5C8.15469 18.0778 8.575 18.5 9.125 18.5H14.875C15.4272 18.5 15.8397 18.0778 15.875 17.5L16.5 7.5" stroke="#A5A5A7" stroke-linecap="round" stroke-linejoin="round"/>
<path d="M6.5 7.5H17.5" stroke="#A5A5A7" stroke-miterlimit="10" stroke-linecap="round"/>
<path d="M10 7.5V6.25C9.99971 6.15143 10.0189 6.05377 10.0565 5.96265C10.0941 5.87152 10.1493 5.78873 10.219 5.71903C10.2887 5.64933 10.3715 5.59409 10.4626 5.55651C10.5538 5.51892 10.6514 5.49971 10.75 5.5H13.25C13.3486 5.49971 13.4462 5.51892 13.5374 5.55651C13.6285 5.59409 13.7113 5.64933 13.781 5.71903C13.8507 5.78873 13.9059 5.87152 13.9435 5.96265C13.9811 6.05377 14.0003 6.15143 14 6.25V7.5M12 9.5V16.5M9.75 9.5L10 16.5M14.25 9.5L14 16.5" stroke="#A5A5A7" stroke-linecap="round" stroke-linejoin="round"/>
</svg>
