<svg width="224" height="32" viewBox="0 0 224 32" fill="none" xmlns="http://www.w3.org/2000/svg">
<path d="M16.7506 1.88247C19.6737 1.88247 22.5313 2.71045 24.9618 4.2617C27.3923 5.81296 29.2867 8.01781 30.4053 10.5975C31.524 13.1771 31.8167 16.0157 31.2464 18.7542C30.6761 21.4927 29.2685 24.0082 27.2015 25.9826C25.1345 27.957 22.501 29.3015 19.634 29.8463C16.767 30.391 13.7952 30.1114 11.0946 29.0429C8.39394 27.9744 6.08566 26.1649 4.46163 23.8433C2.83761 21.5217 1.97079 18.7922 1.97079 16C1.97533 12.2571 3.53394 8.6688 6.3047 6.02219C9.07547 3.37558 12.8321 1.88681 16.7506 1.88247V1.88247ZM16.7506 0C13.4376 0 10.1991 0.938383 7.44446 2.69649C4.68984 4.45459 2.54288 6.95345 1.27507 9.87706C0.00725779 12.8007 -0.324459 16.0177 0.321865 19.1214C0.968189 22.2251 2.56353 25.0761 4.90614 27.3137C7.24874 29.5513 10.2334 31.0752 13.4827 31.6926C16.732 32.3099 20.1 31.9931 23.1607 30.7821C26.2215 29.5711 28.8376 27.5203 30.6782 24.8891C32.5187 22.2579 33.5011 19.1645 33.5011 16C33.5011 11.7565 31.7364 7.68687 28.595 4.68629C25.4537 1.68571 21.1931 0 16.7506 0V0Z" fill="#C8512C"/>
<path d="M25.4079 11.2948H20.2161C20.1752 11.2932 20.1356 11.2804 20.102 11.2579C20.0685 11.2354 20.0424 11.2042 20.0268 11.168C20.0113 11.1318 20.0069 11.0921 20.0142 11.0536C20.0215 11.0151 20.0402 10.9794 20.0681 10.9507L21.6165 9.47382C21.6559 9.43647 21.7089 9.41517 21.7644 9.41441H25.41C25.4669 9.41441 25.5215 9.43599 25.5617 9.47441C25.6019 9.51282 25.6245 9.56493 25.6245 9.61925V11.092C25.6242 11.1189 25.6184 11.1455 25.6074 11.1703C25.5963 11.195 25.5803 11.2175 25.5602 11.2363C25.5401 11.2551 25.5163 11.27 25.4901 11.28C25.464 11.2901 25.4361 11.2951 25.4079 11.2948V11.2948Z" fill="#111215"/>
<path d="M13.2873 11.2948H8.09335C8.03648 11.2948 7.98193 11.2733 7.94172 11.2348C7.9015 11.1964 7.87891 11.1443 7.87891 11.09V9.61311C7.87891 9.55878 7.9015 9.50668 7.94172 9.46827C7.98193 9.42985 8.03648 9.40827 8.09335 9.40827H11.739C11.7924 9.41271 11.8421 9.4361 11.8784 9.47382L13.4288 10.9548C13.4552 10.9832 13.4728 11.018 13.4797 11.0554C13.4865 11.0928 13.4824 11.1312 13.4677 11.1665C13.4531 11.2017 13.4284 11.2324 13.3966 11.2551C13.3647 11.2777 13.3269 11.2915 13.2873 11.2948V11.2948Z" fill="#111215"/>
<path d="M25.4118 13.1753H8.08868C7.97498 13.1753 7.88281 13.2633 7.88281 13.3719V14.8611C7.88281 14.9697 7.97498 15.0577 8.08868 15.0577H25.4118C25.5255 15.0577 25.6177 14.9697 25.6177 14.8611V13.3719C25.6177 13.2633 25.5255 13.1753 25.4118 13.1753Z" fill="#111215"/>
<path d="M25.4118 16.9402H8.08868C7.97498 16.9402 7.88281 17.0283 7.88281 17.1369V18.626C7.88281 18.7346 7.97498 18.8227 8.08868 18.8227H25.4118C25.5255 18.8227 25.6177 18.7346 25.6177 18.626V17.1369C25.6177 17.0283 25.5255 16.9402 25.4118 16.9402Z" fill="#111215"/>
<path d="M25.4118 20.7052H8.08868C7.97498 20.7052 7.88281 20.7932 7.88281 20.9018V22.391C7.88281 22.4996 7.97498 22.5876 8.08868 22.5876H25.4118C25.5255 22.5876 25.6177 22.4996 25.6177 22.391V20.9018C25.6177 20.7932 25.5255 20.7052 25.4118 20.7052Z" fill="#111215"/>
<path d="M47.7213 15.1131L47.9357 22.815H43.4688V9.18296H49.7457L52.319 16.5183H52.4198L54.6608 9.18296H61.1393V22.815H56.4708L56.6123 15.152L56.4922 15.1335L53.8309 22.8171H50.4426L47.8221 15.1151L47.7213 15.1131Z" fill="#111215"/>
<path d="M68.8672 9.18296H73.9668L79.5296 22.815H74.3099L73.5636 20.8117H69.028L68.3225 22.815H63.2422L68.8672 9.18296ZM71.3462 13.9393L70.1775 17.3089H72.4956L71.3462 13.9393Z" fill="#111215"/>
<path d="M86.7204 23.1981C86.1495 23.1985 85.5797 23.1506 85.0177 23.0547C84.4679 22.9608 83.9281 22.8195 83.405 22.6327C82.9007 22.4533 82.4123 22.2355 81.9446 21.9813C81.5062 21.7452 81.0944 21.4665 80.7158 21.1497L83.643 18.1181C84.029 18.4994 84.4828 18.8122 84.9833 19.0419C85.5132 19.3063 86.1012 19.4467 86.6989 19.4516C86.9512 19.4547 87.2015 19.4087 87.4345 19.3164C87.539 19.2779 87.6278 19.2084 87.6876 19.118C87.7475 19.0276 87.7753 18.9212 87.7669 18.8145C87.7701 18.6963 87.7307 18.5806 87.6554 18.4868C87.5449 18.3703 87.4116 18.2756 87.2629 18.2082C87.0182 18.0847 86.7653 17.9766 86.5059 17.8845C86.1771 17.7685 85.7639 17.6319 85.2664 17.4749C84.7893 17.3239 84.3242 17.1404 83.8746 16.9259C83.4436 16.7224 83.0462 16.4594 82.6952 16.1455C82.3483 15.8317 82.0705 15.455 81.8781 15.0373C81.6634 14.5459 81.5597 14.0168 81.5736 13.4846C81.5459 12.7291 81.7318 11.9804 82.1119 11.3174C82.4597 10.7435 82.9347 10.2492 83.5037 9.86918C84.0884 9.48431 84.7428 9.20648 85.4337 9.04982C86.126 8.88454 86.8367 8.79994 87.5503 8.79787C88.5323 8.80562 89.505 8.98185 90.4218 9.31816C91.3749 9.65143 92.2496 10.1617 92.9951 10.8196L90.0122 13.7263C89.696 13.3459 89.2875 13.045 88.822 12.8496C88.4259 12.6661 87.9944 12.5628 87.5546 12.5464C87.2645 12.5359 86.9756 12.5855 86.7075 12.6919C86.611 12.7303 86.5285 12.7951 86.4705 12.8782C86.4125 12.9614 86.3816 13.059 86.3816 13.1589C86.3816 13.2588 86.4125 13.3564 86.4705 13.4395C86.5285 13.5227 86.611 13.5875 86.7075 13.6259C87.0563 13.7753 87.4144 13.904 87.7798 14.011C88.2901 14.1653 88.8277 14.3449 89.3924 14.5498C89.9476 14.75 90.4732 15.0186 90.9557 15.3486C91.4283 15.6717 91.8292 16.0811 92.1352 16.5531C92.4611 17.0903 92.6217 17.7044 92.5984 18.3249C92.6168 19.0703 92.4399 19.8082 92.0837 20.4717C91.7543 21.0666 91.2933 21.5859 90.7327 21.9936C90.167 22.402 89.5283 22.7087 88.8477 22.899C88.1575 23.0965 87.4409 23.1972 86.7204 23.1981V23.1981Z" fill="#111215"/>
<path d="M104.305 17.6367H100.394V22.8171H95.5967V9.18296H100.375V13.8041H104.286V9.18296H109.105V22.815H104.305V17.6367Z" fill="#111215"/>
<path d="M119.282 23.1981C118.291 23.2176 117.305 23.0677 116.37 22.7556C115.6 22.4938 114.896 22.0807 114.304 21.543C113.756 21.0333 113.336 20.4113 113.076 19.724C112.801 18.9992 112.663 18.2335 112.668 17.4626V9.18296H117.465V16.9669C117.465 17.621 117.63 18.131 117.959 18.497C118.332 18.8491 118.835 19.0466 119.36 19.0466C119.885 19.0466 120.388 18.8491 120.761 18.497C121.09 18.131 121.255 17.621 121.255 16.9669V9.18296H126.033V17.4626C126.039 18.2327 125.894 18.9972 125.604 19.7158C125.32 20.4052 124.881 21.0263 124.317 21.5348C123.71 22.073 122.993 22.4858 122.211 22.7474C121.27 23.0608 120.278 23.2134 119.282 23.1981V23.1981Z" fill="#111215"/>
<path d="M134.382 18.4253V22.815H129.61V9.18298H135.739C136.46 9.18174 137.18 9.25592 137.884 9.4042C138.552 9.54027 139.188 9.7953 139.758 10.156C140.314 10.5147 140.77 10.9969 141.088 11.5612C141.444 12.248 141.612 13.0098 141.577 13.7755C141.601 14.5223 141.431 15.2632 141.083 15.9324C140.769 16.5011 140.321 16.9921 139.773 17.3663C139.208 17.7479 138.572 18.0226 137.899 18.1754C137.19 18.3425 136.463 18.4265 135.733 18.4253H134.382ZM134.382 12.7451V14.941H135.39C135.741 14.9438 136.086 14.8537 136.387 14.6809C136.54 14.5887 136.663 14.4581 136.743 14.3034C136.823 14.1488 136.857 13.9761 136.842 13.8041C136.85 13.621 136.809 13.439 136.721 13.2757C136.643 13.1419 136.527 13.0314 136.387 12.9561C136.24 12.8768 136.079 12.8214 135.913 12.7922C135.741 12.7601 135.565 12.7437 135.39 12.7431L134.382 12.7451Z" fill="#111215"/>
<path d="M154.57 10.3894C154.932 9.57006 155.629 8.76709 156.63 8.76709C157.038 8.76188 157.443 8.82497 157.827 8.95349V10.5492C156.877 10.5342 155.929 10.6508 155.013 10.8954C155.657 11.5877 156.017 12.7041 156.017 13.7938C156.017 16.8787 153.538 18.6629 150.42 18.6629C149.543 18.671 148.671 18.5423 147.838 18.2819C147.364 18.6813 146.753 19.1852 146.753 19.8243C146.753 20.4634 147.087 20.8362 148.814 20.9141L152.768 21.1189C155.665 21.2787 157.308 21.9977 157.308 24.6298C157.308 27.9544 153.437 28.8065 150.094 28.8065C144.748 28.8065 143.875 26.8646 143.875 25.3755C143.875 23.6999 145.183 22.688 146.187 22.0243C145.35 21.7846 144.795 21.2049 144.795 20.2954C144.795 19.2057 145.631 18.4867 146.549 17.7944C145.573 17.315 144.851 16.3605 144.544 15.1601C144.43 14.7526 144.374 14.3324 144.377 13.9106C144.377 10.879 146.736 8.93506 150.281 8.93506C152.091 8.95349 153.596 9.3263 154.57 10.3894ZM152.704 22.733L147.634 22.4667C146.577 23.1857 145.796 23.9826 145.796 25.0743C145.796 26.244 146.633 27.2825 150.392 27.2825C153.761 27.2825 155.35 26.2993 155.35 24.595C155.344 23.5831 154.82 22.8396 152.704 22.733V22.733ZM150.364 10.416C148.136 10.416 146.337 11.3993 146.337 13.7754C146.337 15.7439 147.506 17.1532 150.319 17.1532C152.659 17.1532 154.162 15.8771 154.162 13.8287C154.151 11.5058 152.77 10.416 150.364 10.416Z" fill="#111215"/>
<path d="M169.887 20.6314C169.887 21.377 170.026 21.6966 170.745 21.6966C171.037 21.685 171.327 21.6311 171.602 21.5368L171.714 22.6798C171.189 22.9371 170.605 23.0653 170.015 23.0526C168.707 23.0526 168.233 22.2804 168.178 21.3504C167.12 22.4156 165.448 23.1325 163.443 23.1325C159.823 23.1325 159.237 20.7646 159.237 19.4618C159.237 15.6047 162.913 14.8857 166.145 14.8857C166.953 14.8857 167.453 14.9123 168.01 14.9389V13.5809C168.01 11.5058 167.397 10.3895 164.918 10.3895C162.662 10.3895 161.881 11.2416 161.577 12.8373L159.833 12.5464C160.28 10.0187 162.006 8.95558 165.042 8.95558C168.439 8.95558 169.889 10.2317 169.889 13.6116L169.887 20.6314ZM168.049 16.3749C167.467 16.3127 166.881 16.286 166.295 16.295C164.345 16.295 161.197 16.4281 161.197 19.1934C161.197 20.5229 161.699 21.6945 163.899 21.6945C165.542 21.6945 167.159 20.8158 168.049 19.8325V16.3749Z" fill="#111215"/>
<path d="M181.42 10.8155C179.665 10.5226 177.465 11.2948 176.294 12.3846V22.813H174.431V9.21981H175.962L176.129 11.1084C177.493 9.35296 179.026 8.92689 180.976 8.95352H181.422L181.42 10.8155Z" fill="#111215"/>
<path d="M193.338 20.6314C193.338 21.377 193.477 21.6966 194.196 21.6966C194.489 21.685 194.778 21.6311 195.054 21.5368L195.165 22.6798C194.64 22.9371 194.056 23.0653 193.467 23.0526C192.159 23.0526 191.685 22.2804 191.629 21.3504C190.572 22.4156 188.899 23.1325 186.894 23.1325C183.274 23.1325 182.688 20.7646 182.688 19.4618C182.688 15.6047 186.364 14.8857 189.596 14.8857C190.404 14.8857 190.904 14.9123 191.462 14.9389V13.5809C191.462 11.5058 190.848 10.3895 188.369 10.3895C186.113 10.3895 185.333 11.2416 185.028 12.8373L183.285 12.5464C183.731 10.0187 185.457 8.95558 188.494 8.95558C191.89 8.95558 193.34 10.2317 193.34 13.6116L193.338 20.6314ZM191.5 16.3749C190.918 16.3127 190.332 16.286 189.746 16.295C187.797 16.295 184.649 16.4281 184.649 19.1934C184.649 20.5229 185.15 21.6945 187.351 21.6945C188.993 21.6945 190.61 20.8158 191.5 19.8325V16.3749Z" fill="#111215"/>
<path d="M207.373 10.3894C207.735 9.57006 208.432 8.76709 209.434 8.76709C209.841 8.76188 210.246 8.82497 210.631 8.95349V10.5492C209.68 10.5342 208.732 10.6508 207.817 10.8954C208.46 11.5877 208.821 12.7041 208.821 13.7938C208.821 16.8787 206.342 18.6629 203.223 18.6629C202.344 18.6719 201.469 18.5432 200.633 18.2819C200.159 18.6813 199.548 19.1852 199.548 19.8243C199.548 20.4634 199.882 20.8362 201.609 20.9141L205.563 21.1189C208.46 21.2787 210.103 21.9977 210.103 24.6298C210.103 27.9544 206.232 28.8065 202.889 28.8065C197.543 28.8065 196.67 26.8646 196.67 25.3755C196.67 23.6999 197.978 22.688 198.982 22.0243C198.145 21.7846 197.59 21.2049 197.59 20.2954C197.59 19.2057 198.426 18.4867 199.344 17.7944C198.368 17.315 197.646 16.3605 197.339 15.1601C197.225 14.7526 197.169 14.3324 197.172 13.9106C197.172 10.879 199.531 8.93506 203.075 8.93506C204.894 8.95349 206.399 9.3263 207.373 10.3894ZM205.507 22.733L200.438 22.4667C199.381 23.1857 198.6 23.9826 198.6 25.0743C198.6 26.244 199.436 27.2825 203.196 27.2825C206.565 27.2825 208.154 26.2993 208.154 24.595C208.154 23.5831 207.624 22.8396 205.507 22.733V22.733ZM203.166 10.416C200.937 10.416 199.127 11.3993 199.127 13.7672C199.127 15.7357 200.296 17.145 203.11 17.145C205.449 17.145 206.953 15.8689 206.953 13.8205C206.955 11.5058 205.563 10.416 203.166 10.416Z" fill="#111215"/>
<path d="M211.913 16.0287C211.913 11.0531 214.915 8.95352 218.514 8.95352C222.412 8.95352 223.999 11.4812 223.999 14.7259C223.972 15.2585 223.944 15.8156 223.86 16.3748H213.888C214 20.445 215.977 21.5368 218.456 21.5368C220.684 21.5368 221.604 20.658 222.048 18.9558L223.802 19.2754C223.189 21.9629 220.933 23.1325 218.317 23.1325C213.361 23.1325 211.913 19.7793 211.913 16.0287ZM222.05 14.9389C222.106 12.1367 220.993 10.498 218.347 10.498C216.174 10.498 214.058 11.7742 213.918 14.941L222.05 14.9389Z" fill="#111215"/>
</svg>
