<svg width="24" height="24" viewBox="0 0 24 24" fill="none" xmlns="http://www.w3.org/2000/svg">
<path d="M15.2069 8.04001L6.70281 16.565L6.1875 17.8125L7.435 17.2972L15.96 8.79313L15.2069 8.04001ZM16.9084 6.33876L16.54 6.70688L17.2931 7.46001L17.6616 7.09157C17.7582 6.99482 17.8125 6.86365 17.8125 6.72688C17.8125 6.59011 17.7582 6.45894 17.6616 6.3622L17.6381 6.33876C17.5902 6.29084 17.5333 6.25283 17.4707 6.2269C17.4081 6.20097 17.341 6.18762 17.2733 6.18762C17.2055 6.18762 17.1384 6.20097 17.0758 6.2269C17.0132 6.25283 16.9563 6.29084 16.9084 6.33876Z" stroke="#A5A5A7" stroke-linecap="round" stroke-linejoin="round"/>
</svg>
