<svg width="291" height="32" viewBox="0 0 291 32" fill="none" xmlns="http://www.w3.org/2000/svg">
<path d="M16.7506 1.88247C19.6737 1.88247 22.5313 2.71045 24.9618 4.2617C27.3923 5.81296 29.2867 8.01781 30.4053 10.5975C31.524 13.1771 31.8167 16.0157 31.2464 18.7542C30.6761 21.4927 29.2685 24.0082 27.2015 25.9826C25.1345 27.957 22.501 29.3015 19.634 29.8463C16.767 30.391 13.7952 30.1114 11.0946 29.0429C8.39394 27.9744 6.08566 26.1649 4.46163 23.8433C2.83761 21.5217 1.97079 18.7922 1.97079 16C1.97533 12.2571 3.53394 8.6688 6.3047 6.02219C9.07547 3.37558 12.8321 1.88681 16.7506 1.88247V1.88247ZM16.7506 0C13.4376 0 10.1991 0.938383 7.44446 2.69649C4.68984 4.45459 2.54288 6.95345 1.27507 9.87706C0.00725779 12.8007 -0.324459 16.0177 0.321865 19.1214C0.968189 22.2251 2.56353 25.0761 4.90614 27.3137C7.24874 29.5513 10.2334 31.0752 13.4827 31.6926C16.732 32.3099 20.1 31.9931 23.1607 30.7821C26.2215 29.5711 28.8376 27.5203 30.6782 24.8891C32.5187 22.2579 33.5011 19.1645 33.5011 16C33.5011 11.7565 31.7364 7.68687 28.595 4.68629C25.4537 1.68571 21.1931 0 16.7506 0V0Z" fill="#C8512C"/>
<path d="M25.4079 11.2947H20.2161C20.1752 11.2931 20.1356 11.2802 20.102 11.2578C20.0685 11.2353 20.0424 11.2041 20.0268 11.1679C20.0113 11.1317 20.0069 11.092 20.0142 11.0535C20.0215 11.015 20.0402 10.9793 20.0681 10.9506L21.6165 9.47371C21.6559 9.43636 21.7089 9.41507 21.7644 9.41431H25.41C25.4669 9.41431 25.5215 9.43589 25.5617 9.4743C25.6019 9.51272 25.6245 9.56482 25.6245 9.61915V11.0919C25.6242 11.1188 25.6184 11.1454 25.6074 11.1702C25.5963 11.1949 25.5803 11.2174 25.5602 11.2362C25.5401 11.255 25.5163 11.2699 25.4901 11.2799C25.464 11.29 25.4361 11.295 25.4079 11.2947V11.2947Z" fill="white"/>
<path d="M13.2873 11.295H8.09335C8.03648 11.295 7.98193 11.2734 7.94172 11.235C7.9015 11.1966 7.87891 11.1445 7.87891 11.0902V9.61329C7.87891 9.55896 7.9015 9.50686 7.94172 9.46844C7.98193 9.43003 8.03648 9.40845 8.09335 9.40845H11.739C11.7924 9.41289 11.8421 9.43627 11.8784 9.474L13.4288 10.955C13.4552 10.9834 13.4728 11.0182 13.4797 11.0556C13.4865 11.0929 13.4824 11.1314 13.4677 11.1666C13.4531 11.2019 13.4284 11.2326 13.3966 11.2553C13.3647 11.2779 13.3269 11.2917 13.2873 11.295V11.295Z" fill="white"/>
<path d="M25.4118 13.1753H8.08868C7.97498 13.1753 7.88281 13.2633 7.88281 13.3719V14.8611C7.88281 14.9697 7.97498 15.0578 8.08868 15.0578H25.4118C25.5255 15.0578 25.6177 14.9697 25.6177 14.8611V13.3719C25.6177 13.2633 25.5255 13.1753 25.4118 13.1753Z" fill="white"/>
<path d="M25.4118 16.9404H8.08868C7.97498 16.9404 7.88281 17.0285 7.88281 17.1371V18.6263C7.88281 18.7349 7.97498 18.8229 8.08868 18.8229H25.4118C25.5255 18.8229 25.6177 18.7349 25.6177 18.6263V17.1371C25.6177 17.0285 25.5255 16.9404 25.4118 16.9404Z" fill="white"/>
<path d="M25.4118 20.7051H8.08868C7.97498 20.7051 7.88281 20.7931 7.88281 20.9017V22.3909C7.88281 22.4995 7.97498 22.5876 8.08868 22.5876H25.4118C25.5255 22.5876 25.6177 22.4995 25.6177 22.3909V20.9017C25.6177 20.7931 25.5255 20.7051 25.4118 20.7051Z" fill="white"/>
<path d="M47.7213 15.113L47.9357 22.8149H43.4688V9.18286H49.7457L52.319 16.5182H52.4198L54.6608 9.18286H61.1393V22.8149H56.4708L56.6123 15.1519L56.4922 15.1334L53.8309 22.817H50.4426L47.8221 15.115L47.7213 15.113Z" fill="white"/>
<path d="M68.8672 9.18286H73.9668L79.5296 22.8149H74.3099L73.5636 20.8116H69.028L68.3225 22.8149H63.2422L68.8672 9.18286ZM71.3462 13.9392L70.1775 17.3088H72.4956L71.3462 13.9392Z" fill="white"/>
<path d="M86.7204 23.1981C86.1495 23.1985 85.5797 23.1505 85.0177 23.0547C84.4679 22.9607 83.9281 22.8195 83.405 22.6327C82.9007 22.4533 82.4123 22.2355 81.9446 21.9813C81.5062 21.7452 81.0944 21.4665 80.7158 21.1497L83.643 18.118C84.029 18.4994 84.4828 18.8122 84.9833 19.0419C85.5132 19.3063 86.1012 19.4467 86.6989 19.4515C86.9512 19.4547 87.2015 19.4087 87.4345 19.3164C87.539 19.2779 87.6278 19.2083 87.6876 19.118C87.7475 19.0276 87.7753 18.9212 87.7669 18.8145C87.7701 18.6963 87.7307 18.5806 87.6554 18.4868C87.5449 18.3702 87.4116 18.2756 87.2629 18.2082C87.0182 18.0847 86.7653 17.9766 86.5059 17.8845C86.1771 17.7684 85.7639 17.6319 85.2664 17.4748C84.7893 17.3239 84.3242 17.1404 83.8746 16.9259C83.4436 16.7223 83.0462 16.4594 82.6952 16.1454C82.3483 15.8317 82.0705 15.455 81.8781 15.0373C81.6634 14.5459 81.5597 14.0168 81.5736 13.4846C81.5459 12.7291 81.7318 11.9804 82.1119 11.3174C82.4597 10.7435 82.9347 10.2492 83.5037 9.86916C84.0884 9.48429 84.7428 9.20647 85.4337 9.0498C86.126 8.88452 86.8367 8.79992 87.5503 8.79785C88.5323 8.8056 89.505 8.98183 90.4218 9.31814C91.3749 9.65141 92.2496 10.1617 92.9951 10.8196L90.0122 13.7263C89.696 13.3459 89.2875 13.045 88.822 12.8496C88.4259 12.666 87.9944 12.5628 87.5546 12.5464C87.2645 12.5359 86.9756 12.5855 86.7075 12.6918C86.611 12.7303 86.5285 12.7951 86.4705 12.8782C86.4125 12.9613 86.3816 13.059 86.3816 13.1589C86.3816 13.2588 86.4125 13.3564 86.4705 13.4395C86.5285 13.5226 86.611 13.5875 86.7075 13.6259C87.0563 13.7753 87.4144 13.9039 87.7798 14.011C88.2901 14.1653 88.8277 14.3449 89.3924 14.5497C89.9476 14.75 90.4732 15.0186 90.9557 15.3486C91.4283 15.6717 91.8292 16.0811 92.1352 16.5531C92.4611 17.0903 92.6217 17.7044 92.5984 18.3249C92.6168 19.0703 92.4399 19.8082 92.0837 20.4716C91.7543 21.0666 91.2933 21.5859 90.7327 21.9936C90.167 22.4019 89.5283 22.7087 88.8477 22.899C88.1575 23.0965 87.4409 23.1972 86.7204 23.1981V23.1981Z" fill="white"/>
<path d="M104.305 17.6366H100.394V22.817H95.5967V9.18286H100.375V13.804H104.286V9.18286H109.105V22.8149H104.305V17.6366Z" fill="white"/>
<path d="M119.282 23.198C118.291 23.2175 117.305 23.0677 116.37 22.7555C115.6 22.4937 114.896 22.0806 114.304 21.5429C113.756 21.0332 113.336 20.4112 113.076 19.7239C112.801 18.9991 112.663 18.2334 112.668 17.4625V9.18286H117.465V16.9668C117.465 17.6209 117.63 18.1309 117.959 18.4969C118.332 18.849 118.835 19.0465 119.36 19.0465C119.885 19.0465 120.388 18.849 120.761 18.4969C121.09 18.1309 121.255 17.6209 121.255 16.9668V9.18286H126.033V17.4625C126.039 18.2326 125.894 18.9971 125.604 19.7157C125.32 20.4051 124.881 21.0262 124.317 21.5347C123.71 22.0729 122.993 22.4857 122.211 22.7473C121.27 23.0607 120.278 23.2133 119.282 23.198V23.198Z" fill="white"/>
<path d="M134.382 18.4252V22.8149H129.61V9.18288H135.739C136.46 9.18164 137.18 9.25582 137.884 9.4041C138.552 9.54017 139.188 9.7952 139.758 10.1559C140.314 10.5146 140.77 10.9968 141.088 11.5611C141.444 12.2479 141.612 13.0097 141.577 13.7754C141.601 14.5222 141.431 15.2631 141.083 15.9323C140.769 16.501 140.321 16.992 139.773 17.3662C139.208 17.7478 138.572 18.0225 137.899 18.1753C137.19 18.3424 136.463 18.4264 135.733 18.4252H134.382ZM134.382 12.745V14.9409H135.39C135.741 14.9437 136.086 14.8536 136.387 14.6808C136.54 14.5886 136.663 14.458 136.743 14.3033C136.823 14.1487 136.857 13.976 136.842 13.8041C136.85 13.6209 136.809 13.4389 136.721 13.2756C136.643 13.1418 136.527 13.0313 136.387 12.956C136.24 12.8767 136.079 12.8213 135.913 12.7921C135.741 12.76 135.565 12.7436 135.39 12.743L134.382 12.745Z" fill="white"/>
<path d="M154.57 10.3895C154.932 9.57012 155.629 8.76714 156.63 8.76714C157.038 8.76193 157.443 8.82502 157.827 8.95355V10.5492C156.877 10.5343 155.929 10.6509 155.013 10.8954C155.657 11.5878 156.017 12.7042 156.017 13.7939C156.017 16.8788 153.538 18.6629 150.42 18.6629C149.543 18.6711 148.671 18.5424 147.838 18.2819C147.364 18.6814 146.753 19.1853 146.753 19.8244C146.753 20.4635 147.087 20.8363 148.814 20.9141L152.768 21.119C155.665 21.2787 157.308 21.9977 157.308 24.6299C157.308 27.9544 153.437 28.8066 150.094 28.8066C144.748 28.8066 143.875 26.8647 143.875 25.3755C143.875 23.6999 145.183 22.688 146.187 22.0243C145.35 21.7847 144.795 21.205 144.795 20.2955C144.795 19.2058 145.631 18.4868 146.549 17.7944C145.573 17.3151 144.851 16.3605 144.544 15.1602C144.43 14.7527 144.374 14.3324 144.377 13.9107C144.377 10.879 146.736 8.93511 150.281 8.93511C152.091 8.95355 153.596 9.32636 154.57 10.3895ZM152.704 22.7331L147.634 22.4668C146.577 23.1858 145.796 23.9826 145.796 25.0744C145.796 26.244 146.633 27.2826 150.392 27.2826C153.761 27.2826 155.35 26.2993 155.35 24.5951C155.344 23.5832 154.82 22.8396 152.704 22.7331V22.7331ZM150.364 10.4161C148.136 10.4161 146.337 11.3993 146.337 13.7755C146.337 15.744 147.506 17.1533 150.319 17.1533C152.659 17.1533 154.162 15.8771 154.162 13.8287C154.151 11.5058 152.77 10.4161 150.364 10.4161Z" fill="white"/>
<path d="M169.887 20.6314C169.887 21.377 170.026 21.6966 170.745 21.6966C171.037 21.685 171.327 21.6311 171.602 21.5368L171.714 22.6798C171.189 22.9371 170.605 23.0653 170.015 23.0526C168.707 23.0526 168.233 22.2804 168.178 21.3504C167.12 22.4156 165.448 23.1325 163.443 23.1325C159.823 23.1325 159.237 20.7646 159.237 19.4618C159.237 15.6046 162.913 14.8857 166.145 14.8857C166.953 14.8857 167.453 14.9123 168.01 14.9389V13.5808C168.01 11.5058 167.397 10.3894 164.918 10.3894C162.662 10.3894 161.881 11.2416 161.577 12.8373L159.833 12.5464C160.28 10.0187 162.006 8.95557 165.042 8.95557C168.439 8.95557 169.889 10.2317 169.889 13.6116L169.887 20.6314ZM168.049 16.3748C167.467 16.3127 166.881 16.286 166.295 16.295C164.345 16.295 161.197 16.4281 161.197 19.1934C161.197 20.5228 161.699 21.6945 163.899 21.6945C165.542 21.6945 167.159 20.8158 168.049 19.8325V16.3748Z" fill="white"/>
<path d="M181.42 10.8153C179.665 10.5224 177.465 11.2946 176.294 12.3844V22.8127H174.431V9.21959H175.962L176.129 11.1082C177.493 9.35274 179.026 8.92667 180.976 8.9533H181.422L181.42 10.8153Z" fill="white"/>
<path d="M193.338 20.6314C193.338 21.377 193.477 21.6966 194.196 21.6966C194.489 21.685 194.778 21.6311 195.054 21.5368L195.165 22.6798C194.64 22.9371 194.056 23.0653 193.467 23.0526C192.159 23.0526 191.685 22.2804 191.629 21.3504C190.572 22.4156 188.899 23.1325 186.894 23.1325C183.274 23.1325 182.688 20.7646 182.688 19.4618C182.688 15.6046 186.364 14.8857 189.596 14.8857C190.404 14.8857 190.904 14.9123 191.462 14.9389V13.5808C191.462 11.5058 190.848 10.3894 188.369 10.3894C186.113 10.3894 185.333 11.2416 185.028 12.8373L183.285 12.5464C183.731 10.0187 185.457 8.95557 188.494 8.95557C191.89 8.95557 193.34 10.2317 193.34 13.6116L193.338 20.6314ZM191.5 16.3748C190.918 16.3127 190.332 16.286 189.746 16.295C187.797 16.295 184.649 16.4281 184.649 19.1934C184.649 20.5228 185.15 21.6945 187.351 21.6945C188.993 21.6945 190.61 20.8158 191.5 19.8325V16.3748Z" fill="white"/>
<path d="M207.373 10.3895C207.735 9.57012 208.432 8.76714 209.434 8.76714C209.841 8.76193 210.246 8.82502 210.631 8.95355V10.5492C209.68 10.5343 208.732 10.6509 207.817 10.8954C208.46 11.5878 208.821 12.7042 208.821 13.7939C208.821 16.8788 206.342 18.6629 203.223 18.6629C202.344 18.672 201.469 18.5433 200.633 18.2819C200.159 18.6814 199.548 19.1853 199.548 19.8244C199.548 20.4635 199.882 20.8363 201.609 20.9141L205.563 21.119C208.46 21.2787 210.103 21.9977 210.103 24.6299C210.103 27.9544 206.232 28.8066 202.889 28.8066C197.543 28.8066 196.67 26.8647 196.67 25.3755C196.67 23.6999 197.978 22.688 198.982 22.0243C198.145 21.7847 197.59 21.205 197.59 20.2955C197.59 19.2058 198.426 18.4868 199.344 17.7944C198.368 17.3151 197.646 16.3605 197.339 15.1602C197.225 14.7527 197.169 14.3324 197.172 13.9107C197.172 10.879 199.531 8.93511 203.075 8.93511C204.894 8.95355 206.399 9.32636 207.373 10.3895ZM205.507 22.7331L200.438 22.4668C199.381 23.1858 198.6 23.9826 198.6 25.0744C198.6 26.244 199.436 27.2826 203.196 27.2826C206.565 27.2826 208.154 26.2993 208.154 24.5951C208.154 23.5832 207.624 22.8396 205.507 22.7331V22.7331ZM203.166 10.4161C200.937 10.4161 199.127 11.3993 199.127 13.7673C199.127 15.7358 200.296 17.1451 203.11 17.1451C205.449 17.1451 206.953 15.8689 206.953 13.8205C206.955 11.5058 205.563 10.4161 203.166 10.4161Z" fill="white"/>
<path d="M211.913 16.0288C211.913 11.0532 214.915 8.95361 218.514 8.95361C222.412 8.95361 223.999 11.4813 223.999 14.726C223.972 15.2586 223.944 15.8157 223.86 16.3749H213.888C214 20.4451 215.977 21.5369 218.456 21.5369C220.684 21.5369 221.604 20.6581 222.048 18.9559L223.802 19.2755C223.189 21.963 220.933 23.1326 218.317 23.1326C213.361 23.1326 211.913 19.7794 211.913 16.0288ZM222.05 14.939C222.106 12.1368 220.993 10.4981 218.347 10.4981C216.174 10.4981 214.058 11.7743 213.918 14.9411L222.05 14.939Z" fill="white"/>
<path d="M232.175 25H239.1C242.5 25 244.65 23.175 244.65 20.3C244.65 18.1 243.6 16.65 241.525 15.975C243.375 15.25 244.3 13.825 244.3 11.725C244.3 8.85 242.175 7.1 238.725 7.1H232.175V25ZM238.7 8.7C241.1 8.7 242.45 9.875 242.45 11.875C242.45 14 241.175 15.25 238.925 15.25H233.975V8.7H238.7ZM239.1 16.825C241.425 16.825 242.825 18.05 242.825 20.075C242.825 22.15 241.45 23.375 239.1 23.375H233.975V16.825H239.1ZM249.323 25V6.775H247.598V25H249.323ZM252.141 18.95C252.141 22.625 254.741 25.3 258.291 25.3C261.841 25.3 264.441 22.625 264.441 18.95C264.441 15.25 261.841 12.575 258.291 12.575C254.741 12.575 252.141 15.25 252.141 18.95ZM253.891 18.925C253.891 16.125 255.691 14.125 258.291 14.125C260.866 14.125 262.691 16.125 262.691 18.925C262.691 21.775 260.866 23.75 258.291 23.75C255.691 23.75 253.891 21.775 253.891 18.925ZM266.375 18.6C266.375 21.9 268.475 24.625 271.925 24.625C274 24.625 275.675 23.625 276.5 21.925V24.8C276.5 27.325 274.85 29 272.375 29C270.2 29 268.7 27.85 268.325 25.9H266.6C267.075 28.825 269.25 30.575 272.35 30.575C275.9 30.575 278.2 28.225 278.2 24.625V12.9H276.7L276.525 15.325C275.75 13.55 274.15 12.575 272.05 12.575C268.5 12.575 266.375 15.3 266.375 18.6ZM268.1 18.575C268.1 16.125 269.6 14.1 272.2 14.1C274.85 14.1 276.35 16 276.35 18.575C276.35 21.175 274.8 23.075 272.175 23.075C269.625 23.075 268.1 21.05 268.1 18.575ZM280.775 21.6C280.775 23.85 282.475 25.3 285.2 25.3C287.95 25.3 289.8 23.875 289.8 21.7C289.8 19.95 288.85 18.975 286.75 18.45L284.675 17.925C283.35 17.6 282.7 16.95 282.7 16.025C282.7 14.725 283.65 14 285.35 14C286.975 14 287.95 14.825 288 16.225H289.675C289.6 13.975 287.95 12.575 285.4 12.575C282.8 12.575 281.025 13.925 281.025 16.05C281.025 17.7 282.05 18.8 284.15 19.325L286.225 19.85C287.65 20.2 288.15 20.775 288.15 21.775C288.15 23.075 287.05 23.875 285.175 23.875C283.475 23.875 282.425 23 282.425 21.6H280.775Z" fill="white"/>
</svg>
