<svg width="856" height="818" viewBox="0 0 856 818" fill="none" xmlns="http://www.w3.org/2000/svg">
<g opacity="0.3">
<path d="M649.315 529.045H206.685C203.78 529.045 201.425 531.294 201.425 534.069V572.12C201.425 574.895 203.78 577.144 206.685 577.144H649.315C652.22 577.144 654.576 574.895 654.576 572.12V534.069C654.576 531.294 652.22 529.045 649.315 529.045Z" fill="white"/>
<path d="M649.315 432.845H206.685C203.78 432.845 201.425 435.095 201.425 437.87V475.92C201.425 478.695 203.78 480.945 206.685 480.945H649.315C652.22 480.945 654.576 478.695 654.576 475.92V437.87C654.576 435.095 652.22 432.845 649.315 432.845Z" fill="white"/>
<path d="M649.315 336.647H206.685C203.78 336.647 201.425 338.896 201.425 341.671V379.722C201.425 382.497 203.78 384.747 206.685 384.747H649.315C652.22 384.747 654.576 382.497 654.576 379.722V341.671C654.576 338.896 652.22 336.647 649.315 336.647Z" fill="white"/>
<path d="M339.507 288.597H206.795C205.342 288.597 203.948 288.046 202.92 287.064C201.893 286.082 201.315 284.751 201.315 283.363V245.627C201.315 244.238 201.893 242.907 202.92 241.926C203.948 240.944 205.342 240.393 206.795 240.393H299.946C301.31 240.506 302.581 241.104 303.507 242.067L343.124 279.909C343.798 280.634 344.247 281.523 344.423 282.478C344.598 283.433 344.493 284.416 344.118 285.317C343.743 286.218 343.113 287.002 342.299 287.581C341.485 288.16 340.518 288.512 339.507 288.597Z" fill="white"/>
<path d="M649.206 288.597H516.548C515.502 288.555 514.491 288.227 513.633 287.653C512.776 287.079 512.109 286.282 511.712 285.357C511.314 284.432 511.202 283.417 511.389 282.433C511.576 281.449 512.054 280.537 512.767 279.804L552.329 242.068C553.336 241.114 554.691 240.569 556.11 240.55H649.26C650.714 240.55 652.107 241.101 653.135 242.083C654.163 243.065 654.74 244.396 654.74 245.784V283.416C654.733 284.103 654.584 284.782 654.302 285.415C654.02 286.047 653.61 286.62 653.096 287.102C652.582 287.583 651.974 287.962 651.307 288.219C650.639 288.476 649.925 288.604 649.206 288.597Z" fill="white"/>
<path d="M428 48.0998C502.691 48.0998 575.705 69.2557 637.808 108.892C699.911 148.529 748.315 204.866 776.897 270.779C805.48 336.693 812.959 409.222 798.388 479.195C783.816 549.168 747.849 613.443 695.035 663.891C642.22 714.339 574.931 748.694 501.675 762.613C428.419 776.531 352.487 769.388 283.482 742.086C214.477 714.783 155.497 668.549 114.001 609.228C72.5048 549.908 50.3563 480.166 50.3563 408.822C50.4724 313.186 90.297 221.5 161.094 153.875C231.891 86.2507 327.878 48.2106 428 48.0998ZM428 0C343.35 0 260.6 23.977 190.216 68.8989C119.832 113.821 64.9741 177.67 32.5798 252.372C0.185447 327.075 -8.29038 409.275 8.22409 488.579C24.7386 567.883 65.5016 640.728 125.358 697.903C185.215 755.077 261.478 794.014 344.501 809.788C427.525 825.563 513.582 817.467 591.789 786.524C669.995 755.581 736.84 703.181 783.869 635.951C830.898 568.721 856 489.679 856 408.822C856 300.396 810.907 196.41 730.642 119.741C650.376 43.0722 541.513 0 428 0Z" fill="#C8512C"/>
</g>
</svg>
